{"accessors":[{"bufferView":0,"byteOffset":0,"componentType":5126,"count":13,"max":[1,1.00000011920929,0.000000338544651867778,0,0.144013687968254,1.00000023841858,0.000000270767799293026,0,0.0000000804442379376269,0.00000000279573386663401,1,0,1.61581814289093,1.52967727184296,0.55998831987381,1],"min":[-1,-0.33486533164978,-0.00000007233094,0,-0.91595870256424,-0.98957586288452,-0.4012736082077,0,-0.40127351880074,-0.00000026515477,-1,0,-0.83734256029129,-0.95209282636642,-0.07559390366077,1],"normalized":false,"type":"MAT4"},{"bufferView":1,"byteOffset":0,"componentType":5126,"count":2057,"max":[2.39833927154541,1.29613935947418,0.282129555940628],"min":[-2.45833110809326,-1.4711834192276,-0.28212961554527],"normalized":false,"type":"VEC3"},{"bufferView":2,"byteOffset":0,"componentType":5126,"count":2057,"max":[1,1,0.9975665807724,1],"min":[-1,-1,-1,-1],"normalized":false,"type":"VEC4"},{"bufferView":3,"byteOffset":0,"componentType":5126,"count":2057,"max":[1,1,1],"min":[-1,-1,-1],"normalized":false,"type":"VEC3"},{"bufferView":4,"byteOffset":0,"componentType":5126,"count":2057,"max":[1,1],"min":[-0.00252616405487,0],"normalized":false,"type":"VEC2"},{"bufferView":5,"byteOffset":0,"componentType":5123,"count":2057,"max":[4,1,1,1],"min":[1,1,1,1],"normalized":false,"type":"VEC4"},{"bufferView":6,"byteOffset":0,"componentType":5126,"count":2057,"max":[1,0,0,0],"min":[1,0,0,0],"normalized":false,"type":"VEC4"},{"bufferView":7,"byteOffset":0,"componentType":5123,"count":2271,"max":[2056],"min":[0],"normalized":false,"type":"SCALAR"},{"bufferView":8,"byteOffset":0,"componentType":5126,"count":392,"max":[2.30733966827393,1.46851933002472,0.149759903550148],"min":[-1.20932292938232,1.18634796142578,-0.14975990355015],"normalized":false,"type":"VEC3"},{"bufferView":9,"byteOffset":0,"componentType":5126,"count":392,"max":[1,1,0.9734006524086,1],"min":[-1,-0.91157066822052,-0.98615390062332,-1],"normalized":false,"type":"VEC4"},{"bufferView":10,"byteOffset":0,"componentType":5126,"count":392,"max":[1,1,1],"min":[-1,-1,-1],"normalized":false,"type":"VEC3"},{"bufferView":11,"byteOffset":0,"componentType":5126,"count":392,"max":[0.875,1],"min":[0.125,0],"normalized":false,"type":"VEC2"},{"bufferView":12,"byteOffset":0,"componentType":5123,"count":392,"max":[1,1,1,1],"min":[1,1,1,1],"normalized":false,"type":"VEC4"},{"bufferView":13,"byteOffset":0,"componentType":5126,"count":392,"max":[1,0,0,0],"min":[1,0,0,0],"normalized":false,"type":"VEC4"},{"bufferView":14,"byteOffset":0,"componentType":5123,"count":408,"max":[391],"min":[0],"normalized":false,"type":"SCALAR"},{"bufferView":15,"byteOffset":0,"componentType":5126,"count":716,"max":[0.246930569410324,1.15536391735077,0.278700679540634],"min":[0.0724207833409309,0.511732161045074,-0.27870073914528],"normalized":false,"type":"VEC3"},{"bufferView":16,"byteOffset":0,"componentType":5126,"count":716,"max":[1,0.866083860397339,1,1],"min":[-0.00012507263455,-0.86608630418777,-1,-1],"normalized":false,"type":"VEC4"},{"bufferView":17,"byteOffset":0,"componentType":5126,"count":716,"max":[1,0.866050183773041,1],"min":[-0.00004168914165,-0.86605542898178,-1],"normalized":false,"type":"VEC3"},{"bufferView":18,"byteOffset":0,"componentType":5126,"count":716,"max":[1,1],"min":[-0.00000008940697,0.010000005364418],"normalized":false,"type":"VEC2"},{"bufferView":19,"byteOffset":0,"componentType":5123,"count":716,"max":[11,6,6,6],"min":[6,6,6,6],"normalized":false,"type":"VEC4"},{"bufferView":20,"byteOffset":0,"componentType":5126,"count":716,"max":[1,0,0,0],"min":[1,0,0,0],"normalized":false,"type":"VEC4"},{"bufferView":21,"byteOffset":0,"componentType":5123,"count":720,"max":[715],"min":[0],"normalized":false,"type":"SCALAR"},{"bufferView":22,"byteOffset":0,"componentType":5126,"count":1841,"max":[0.0724207833409309,1.17764043807983,0.297992736101151],"min":[-0.66011947393417,0.489455580711365,-0.2979927957058],"normalized":false,"type":"VEC3"},{"bufferView":23,"byteOffset":0,"componentType":5126,"count":1841,"max":[1,1,0.866055369377136,1],"min":[-0.00012507550127,-1,-0.86604636907578,-1],"normalized":false,"type":"VEC4"},{"bufferView":24,"byteOffset":0,"componentType":5126,"count":1841,"max":[1,0.866050183773041,1],"min":[-1,-0.86605542898178,-1],"normalized":false,"type":"VEC3"},{"bufferView":25,"byteOffset":0,"componentType":5126,"count":1841,"max":[1,1],"min":[-0.00000008940697,0.5],"normalized":false,"type":"VEC2"},{"bufferView":26,"byteOffset":0,"componentType":5123,"count":1841,"max":[11,6,6,6],"min":[6,6,6,6],"normalized":false,"type":"VEC4"},{"bufferView":27,"byteOffset":0,"componentType":5126,"count":1841,"max":[1,0,0,0],"min":[1,0,0,0],"normalized":false,"type":"VEC4"},{"bufferView":28,"byteOffset":0,"componentType":5123,"count":2160,"max":[1840],"min":[0],"normalized":false,"type":"SCALAR"},{"bufferView":29,"byteOffset":0,"componentType":5126,"count":252,"max":[-0.64506155252457,1.10396182537079,0.23418515920639],"min":[-0.66050308942795,0.563134253025055,-0.23418526351452],"normalized":false,"type":"VEC3"},{"bufferView":30,"byteOffset":0,"componentType":5126,"count":252,"max":[1,0.866032123565674,1,1],"min":[-0.00006103888154,-0.86605554819107,-1,-1],"normalized":false,"type":"VEC4"},{"bufferView":31,"byteOffset":0,"componentType":5126,"count":252,"max":[0.0000416885050071869,0.866050183773041,1],"min":[-1,-0.86605542898178,-1],"normalized":false,"type":"VEC3"},{"bufferView":32,"byteOffset":0,"componentType":5126,"count":252,"max":[1,0.5],"min":[-0.00000008940697,0.010000005364418],"normalized":false,"type":"VEC2"},{"bufferView":33,"byteOffset":0,"componentType":5123,"count":252,"max":[11,6,6,6],"min":[6,6,6,6],"normalized":false,"type":"VEC4"},{"bufferView":34,"byteOffset":0,"componentType":5126,"count":252,"max":[1,0,0,0],"min":[1,0,0,0],"normalized":false,"type":"VEC4"},{"bufferView":35,"byteOffset":0,"componentType":5123,"count":288,"max":[251],"min":[0],"normalized":false,"type":"SCALAR"},{"bufferView":36,"byteOffset":0,"componentType":5126,"count":1313,"max":[1.14180731773376,1.29022884368896,0.388517141342163],"min":[-1.52347719669342,-0.31254842877388,-0.38851726055145],"normalized":false,"type":"VEC3"},{"bufferView":37,"byteOffset":0,"componentType":5126,"count":1313,"max":[1,1,0.923894226551056,1],"min":[-1,-1,-0.92388707399368,-1],"normalized":false,"type":"VEC4"},{"bufferView":38,"byteOffset":0,"componentType":5126,"count":1313,"max":[1,1,1],"min":[-1,-1,-1],"normalized":false,"type":"VEC3"},{"bufferView":39,"byteOffset":0,"componentType":5126,"count":1313,"max":[1,1],"min":[-0.00000008940697,0],"normalized":false,"type":"VEC2"},{"bufferView":40,"byteOffset":0,"componentType":5123,"count":1313,"max":[12,1,1,1],"min":[1,1,1,1],"normalized":false,"type":"VEC4"},{"bufferView":41,"byteOffset":0,"componentType":5126,"count":1313,"max":[1,0,0,0],"min":[1,0,0,0],"normalized":false,"type":"VEC4"},{"bufferView":42,"byteOffset":0,"componentType":5123,"count":1488,"max":[1312],"min":[0],"normalized":false,"type":"SCALAR"},{"bufferView":43,"byteOffset":0,"componentType":5126,"count":316,"max":[-0.00250875973143,1.40325403213501,0.246333464980125],"min":[-1.92806756496429,-0.48028546571732,-0.24633346498013],"normalized":false,"type":"VEC3"},{"bufferView":44,"byteOffset":0,"componentType":5126,"count":316,"max":[1,1,0.0000763009302318096,1],"min":[-0.98405939340591,-1,-0.0001042277072,-1],"normalized":false,"type":"VEC4"},{"bufferView":45,"byteOffset":0,"componentType":5126,"count":316,"max":[1,0.984058022499084,1],"min":[-1,-0.98406058549881,-1],"normalized":false,"type":"VEC3"},{"bufferView":46,"byteOffset":0,"componentType":5126,"count":316,"max":[1,1],"min":[-0.00000008940697,0],"normalized":false,"type":"VEC2"},{"bufferView":47,"byteOffset":0,"componentType":5123,"count":316,"max":[1,1,1,1],"min":[1,1,1,1],"normalized":false,"type":"VEC4"},{"bufferView":48,"byteOffset":0,"componentType":5126,"count":316,"max":[1,0,0,0],"min":[1,0,0,0],"normalized":false,"type":"VEC4"},{"bufferView":49,"byteOffset":0,"componentType":5123,"count":360,"max":[315],"min":[0],"normalized":false,"type":"SCALAR"},{"bufferView":50,"byteOffset":0,"componentType":5126,"count":954,"max":[-0.89404940605164,1.09788143634796,0.237185791134834],"min":[-2.47790455818176,-1.48893463611603,-0.23718579113483],"normalized":false,"type":"VEC3"},{"bufferView":51,"byteOffset":0,"componentType":5126,"count":954,"max":[1,1,0.891317069530487,1],"min":[-0.98494732379913,-1,-0.89128404855728,-1],"normalized":false,"type":"VEC4"},{"bufferView":52,"byteOffset":0,"componentType":5126,"count":954,"max":[1,0.937826573848724,1],"min":[-1,-0.9970583319664,-1],"normalized":false,"type":"VEC3"},{"bufferView":53,"byteOffset":0,"componentType":5126,"count":954,"max":[1,1],"min":[-0.00000008940697,0.00999997556209564],"normalized":false,"type":"VEC2"},{"bufferView":54,"byteOffset":0,"componentType":5123,"count":954,"max":[1,1,1,1],"min":[1,1,1,1],"normalized":false,"type":"VEC4"},{"bufferView":55,"byteOffset":0,"componentType":5126,"count":954,"max":[1,0,0,0],"min":[1,0,0,0],"normalized":false,"type":"VEC4"},{"bufferView":56,"byteOffset":0,"componentType":5123,"count":954,"max":[953],"min":[0],"normalized":false,"type":"SCALAR"}],"asset":{"generator":"Godot Engine v4.3.stable.official@77dcf97d82cbfe4e4615475fa52ca03da645dbd8","version":"2.0"},"bufferViews":[{"buffer":0,"byteLength":832,"byteOffset":0},{"buffer":0,"byteLength":24684,"byteOffset":832,"byteStride":12,"target":34962},{"buffer":0,"byteLength":32912,"byteOffset":25516,"byteStride":16,"target":34962},{"buffer":0,"byteLength":24684,"byteOffset":58428,"byteStride":12,"target":34962},{"buffer":0,"byteLength":16456,"byteOffset":83112,"byteStride":8,"target":34962},{"buffer":0,"byteLength":16456,"byteOffset":99568,"byteStride":8,"target":34962},{"buffer":0,"byteLength":32912,"byteOffset":116024,"byteStride":16,"target":34962},{"buffer":0,"byteLength":4542,"byteOffset":148936,"target":34963},{"buffer":0,"byteLength":4704,"byteOffset":153480,"byteStride":12,"target":34962},{"buffer":0,"byteLength":6272,"byteOffset":158184,"byteStride":16,"target":34962},{"buffer":0,"byteLength":4704,"byteOffset":164456,"byteStride":12,"target":34962},{"buffer":0,"byteLength":3136,"byteOffset":169160,"byteStride":8,"target":34962},{"buffer":0,"byteLength":3136,"byteOffset":172296,"byteStride":8,"target":34962},{"buffer":0,"byteLength":6272,"byteOffset":175432,"byteStride":16,"target":34962},{"buffer":0,"byteLength":816,"byteOffset":181704,"target":34963},{"buffer":0,"byteLength":8592,"byteOffset":182520,"byteStride":12,"target":34962},{"buffer":0,"byteLength":11456,"byteOffset":191112,"byteStride":16,"target":34962},{"buffer":0,"byteLength":8592,"byteOffset":202568,"byteStride":12,"target":34962},{"buffer":0,"byteLength":5728,"byteOffset":211160,"byteStride":8,"target":34962},{"buffer":0,"byteLength":5728,"byteOffset":216888,"byteStride":8,"target":34962},{"buffer":0,"byteLength":11456,"byteOffset":222616,"byteStride":16,"target":34962},{"buffer":0,"byteLength":1440,"byteOffset":234072,"target":34963},{"buffer":0,"byteLength":22092,"byteOffset":235512,"byteStride":12,"target":34962},{"buffer":0,"byteLength":29456,"byteOffset":257604,"byteStride":16,"target":34962},{"buffer":0,"byteLength":22092,"byteOffset":287060,"byteStride":12,"target":34962},{"buffer":0,"byteLength":14728,"byteOffset":309152,"byteStride":8,"target":34962},{"buffer":0,"byteLength":14728,"byteOffset":323880,"byteStride":8,"target":34962},{"buffer":0,"byteLength":29456,"byteOffset":338608,"byteStride":16,"target":34962},{"buffer":0,"byteLength":4320,"byteOffset":368064,"target":34963},{"buffer":0,"byteLength":3024,"byteOffset":372384,"byteStride":12,"target":34962},{"buffer":0,"byteLength":4032,"byteOffset":375408,"byteStride":16,"target":34962},{"buffer":0,"byteLength":3024,"byteOffset":379440,"byteStride":12,"target":34962},{"buffer":0,"byteLength":2016,"byteOffset":382464,"byteStride":8,"target":34962},{"buffer":0,"byteLength":2016,"byteOffset":384480,"byteStride":8,"target":34962},{"buffer":0,"byteLength":4032,"byteOffset":386496,"byteStride":16,"target":34962},{"buffer":0,"byteLength":576,"byteOffset":390528,"target":34963},{"buffer":0,"byteLength":15756,"byteOffset":391104,"byteStride":12,"target":34962},{"buffer":0,"byteLength":21008,"byteOffset":406860,"byteStride":16,"target":34962},{"buffer":0,"byteLength":15756,"byteOffset":427868,"byteStride":12,"target":34962},{"buffer":0,"byteLength":10504,"byteOffset":443624,"byteStride":8,"target":34962},{"buffer":0,"byteLength":10504,"byteOffset":454128,"byteStride":8,"target":34962},{"buffer":0,"byteLength":21008,"byteOffset":464632,"byteStride":16,"target":34962},{"buffer":0,"byteLength":2976,"byteOffset":485640,"target":34963},{"buffer":0,"byteLength":3792,"byteOffset":488616,"byteStride":12,"target":34962},{"buffer":0,"byteLength":5056,"byteOffset":492408,"byteStride":16,"target":34962},{"buffer":0,"byteLength":3792,"byteOffset":497464,"byteStride":12,"target":34962},{"buffer":0,"byteLength":2528,"byteOffset":501256,"byteStride":8,"target":34962},{"buffer":0,"byteLength":2528,"byteOffset":503784,"byteStride":8,"target":34962},{"buffer":0,"byteLength":5056,"byteOffset":506312,"byteStride":16,"target":34962},{"buffer":0,"byteLength":720,"byteOffset":511368,"target":34963},{"buffer":0,"byteLength":11448,"byteOffset":512088,"byteStride":12,"target":34962},{"buffer":0,"byteLength":15264,"byteOffset":523536,"byteStride":16,"target":34962},{"buffer":0,"byteLength":11448,"byteOffset":538800,"byteStride":12,"target":34962},{"buffer":0,"byteLength":7632,"byteOffset":550248,"byteStride":8,"target":34962},{"buffer":0,"byteLength":7632,"byteOffset":557880,"byteStride":8,"target":34962},{"buffer":0,"byteLength":15264,"byteOffset":565512,"byteStride":16,"target":34962},{"buffer":0,"byteLength":1908,"byteOffset":580776,"target":34963}],"buffers":[{"byteLength":582684,"uri":"gun10.bin"}],"extensionsUsed":["GODOT_single_root"],"materials":[{"doubleSided":true,"extensions":{},"name":"Material_006","pbrMetallicRoughness":{"baseColorFactor":[0.178861945867538,0.178861945867538,0.178861945867538,1],"metallicFactor":0,"roughnessFactor":1}},{"doubleSided":true,"extensions":{},"name":"Material_009","pbrMetallicRoughness":{"baseColorFactor":[0.0188487954437733,0.0188487954437733,0.0188487954437733,1],"metallicFactor":0,"roughnessFactor":1}},{"doubleSided":true,"extensions":{},"name":"Material_004","pbrMetallicRoughness":{"baseColorFactor":[0.162641987204552,0.0876502767205238,0.0534074977040291,1],"metallicFactor":0,"roughnessFactor":1}},{"doubleSided":true,"extensions":{},"name":"Material_003","pbrMetallicRoughness":{"baseColorFactor":[0.207915991544724,0.115751974284649,0.0398722961544991,1],"metallicFactor":0,"roughnessFactor":1}},{"doubleSided":true,"extensions":{},"name":"Material_002","pbrMetallicRoughness":{"baseColorFactor":[0.102473974227905,0.102473974227905,0.102473974227905,1],"metallicFactor":0,"roughnessFactor":0.5}},{"doubleSided":true,"extensions":{},"name":"Material_007","pbrMetallicRoughness":{"baseColorFactor":[0.106534980237484,0.106534980237484,0.106534980237484,1],"metallicFactor":0,"roughnessFactor":1}},{"doubleSided":true,"extensions":{},"name":"Material_008","pbrMetallicRoughness":{"baseColorFactor":[0.0134105952456594,0.0134105952456594,0.0134105952456594,1],"metallicFactor":0,"roughnessFactor":1}},{"doubleSided":true,"extensions":{},"name":"Material_005","pbrMetallicRoughness":{"baseColorFactor":[0.0465594604611397,0.0314723402261734,0.0274316780269146,1],"metallicFactor":0,"roughnessFactor":1}}],"meshes":[{"extras":{"targetNames":[]},"primitives":[{"attributes":{"JOINTS_0":5,"NORMAL":3,"POSITION":1,"TANGENT":2,"TEXCOORD_0":4,"WEIGHTS_0":6},"indices":7,"material":0,"mode":4}]},{"extras":{"targetNames":[]},"primitives":[{"attributes":{"JOINTS_0":12,"NORMAL":10,"POSITION":8,"TANGENT":9,"TEXCOORD_0":11,"WEIGHTS_0":13},"indices":14,"material":1,"mode":4}]},{"extras":{"targetNames":[]},"primitives":[{"attributes":{"JOINTS_0":19,"NORMAL":17,"POSITION":15,"TANGENT":16,"TEXCOORD_0":18,"WEIGHTS_0":20},"indices":21,"material":2,"mode":4}]},{"extras":{"targetNames":[]},"primitives":[{"attributes":{"JOINTS_0":26,"NORMAL":24,"POSITION":22,"TANGENT":23,"TEXCOORD_0":25,"WEIGHTS_0":27},"indices":28,"material":3,"mode":4}]},{"extras":{"targetNames":[]},"primitives":[{"attributes":{"JOINTS_0":33,"NORMAL":31,"POSITION":29,"TANGENT":30,"TEXCOORD_0":32,"WEIGHTS_0":34},"indices":35,"material":4,"mode":4}]},{"extras":{"targetNames":[]},"primitives":[{"attributes":{"JOINTS_0":40,"NORMAL":38,"POSITION":36,"TANGENT":37,"TEXCOORD_0":39,"WEIGHTS_0":41},"indices":42,"material":5,"mode":4}]},{"extras":{"targetNames":[]},"primitives":[{"attributes":{"JOINTS_0":47,"NORMAL":45,"POSITION":43,"TANGENT":44,"TEXCOORD_0":46,"WEIGHTS_0":48},"indices":49,"material":6,"mode":4}]},{"extras":{"targetNames":[]},"primitives":[{"attributes":{"JOINTS_0":54,"NORMAL":52,"POSITION":50,"TANGENT":51,"TEXCOORD_0":53,"WEIGHTS_0":55},"indices":56,"material":7,"mode":4}]}],"nodes":[{"children":[1],"name":"Sketchfab_Scene"},{"children":[2],"name":"Sketchfab_model","rotation":[-0.70710676908493,0,0,0.70710676908493]},{"children":[3],"name":"root"},{"children":[4],"name":"GLTF_SceneRootNode","rotation":[0.70710676908493,0,0,0.70710676908493]},{"children":[5],"name":"Armature_15","rotation":[0,0,-0.20498974621296,0.978764116764069],"translation":[-2.09384059906006,-0.7527362704277,0]},{"children":[6,19,20,21,22,23,24,25,26,27],"name":"GLTF_created_0"},{"children":[7],"name":"GLTF_created_0_rootJoint"},{"children":[8,9,10],"name":"body_13"},{"name":"trigger_2","rotation":[0.961410760879517,0.275116950273514,-0.00000004562887,-0.00000015195671],"translation":[0.983858168125153,1.53814196586609,0.0000000054021191964182]},{"name":"hammer_3","rotation":[-0.36830425262451,0.929705321788788,0.0000000062469971418011,-0.00000007019081],"translation":[0.35362297296524,1.65003514289856,-0.00000000981512]},{"children":[11,18],"name":"cylinderarm_12","rotation":[-0.20498983561993,0.978764116764069,0.00000000772573205409799,-0.00000007389461],"translation":[1.86001253128052,1.96034860610962,-0.07559406012297]},{"children":[12,13,14,15,16,17],"name":"cylinder_10","rotation":[-0.6920907497406,0.692090749740601,-0.14494962990284,-0.14494967460632],"translation":[0.874748051166534,0.537060141563416,-0.07559385150671]},{"name":"bullet1_4","translation":[-0.21665696799755,0.0112283825874329,-0.09491539746523]},{"name":"bullet2_5","translation":[-0.0214282348752,0.0112283732742071,-0.2255073338747]},{"name":"bullet3_6","translation":[0.18440979719162,0.0112284338101745,-0.13854114711285]},{"name":"bullet4_7","translation":[0.210501566529274,0.0112282643094659,0.090079054236412]},{"name":"bullet5_8","translation":[0.0218897834420204,0.0112280929461122,0.229989141225815]},{"name":"bullet6_9","translation":[-0.18854773044586,0.0112280929461122,0.138868302106857]},{"name":"extractor_11","rotation":[-0.6920907497406,0.692090809345245,-0.14494951069355,-0.14494958519936],"translation":[-0.08262449502945,0.537060618400574,-0.07559388875961]},{"mesh":0,"name":"Object_7","skin":0},{"mesh":1,"name":"Object_8","skin":0},{"mesh":2,"name":"Object_9","skin":0},{"mesh":3,"name":"Object_10","skin":0},{"mesh":4,"name":"Object_11","skin":0},{"mesh":5,"name":"Object_12","skin":0},{"mesh":6,"name":"Object_13","skin":0},{"mesh":7,"name":"Object_14","skin":0},{"name":"Cube_001_14"}],"scene":0,"scenes":[{"nodes":[0]}],"skins":[{"inverseBindMatrices":0,"joints":[6,7,8,9,10,11,12,13,14,15,16,17,18],"name":"Skin"}]}